<svg version="1.1" xmlns="http://www.w3.org/2000/svg" xmlns:xlink="http://www.w3.org/1999/xlink" width="128px" height="128px" viewBox="0,0,256,256"><g fill="none" fill-rule="nonzero" stroke="none" stroke-width="none" stroke-linecap="none" stroke-linejoin="none" stroke-miterlimit="10" stroke-dasharray="" stroke-dashoffset="0" font-family="none" font-weight="none" font-size="none" text-anchor="none" style="mix-blend-mode: normal"><g transform="translate(256.8,256.5585) rotate(180) scale(2,2)"><path d="M98,18.8c0,-0.1 0,-0.1 0,-0.2c-1.2,-8.8 -8.2,-15.8 -16.9,-17.1c-4.7,-0.7 -9.2,0.3 -12.9,2.5c-2.8,1.7 -6.3,1.6 -9.2,-0.1c-3.6,-2.1 -7.9,-3 -12.4,-2.4c-8.4,1.1 -15.3,7.5 -17,15.7c-0.1,0.7 -0.3,1.4 -0.3,2.1c-0.3,3.4 -2.7,6.3 -5.9,7.6c-7.2,3 -12.2,10.1 -12.2,18.4v78.7c0,1.7 1.3,3 3,3h100c1.7,0 3,-1.3 3,-3v-78.7c0,-8.6 -5.4,-15.9 -13,-18.7c-3.4,-1.3 -5.8,-4.3 -6.2,-7.8z" fill="#e5d7c6" stroke="none" stroke-width="1" stroke-linecap="butt" stroke-linejoin="miter"></path><path d="M50,14c-3.86599,0 -7,3.13401 -7,7c0,3.86599 3.13401,7 7,7c3.86599,0 7,-3.13401 7,-7c0,-3.86599 -3.13401,-7 -7,-7zM31.1,38.3c-3.86599,0 -7,3.13401 -7,7c0,3.86599 3.13401,7 7,7c3.86599,0 7,-3.13401 7,-7c0,-3.86599 -3.13401,-7 -7,-7zM96.9,38.3c-3.86599,0 -7,3.13401 -7,7c0,3.86599 3.13401,7 7,7c3.86599,0 7,-3.13401 7,-7c0,-3.86599 -3.13401,-7 -7,-7zM78,14c-3.86599,0 -7,3.13401 -7,7c0,3.86599 3.13401,7 7,7c3.86599,0 7,-3.13401 7,-7c0,-3.86599 -3.13401,-7 -7,-7z" fill="#251706" stroke="#251706" stroke-width="6" stroke-linecap="round" stroke-linejoin="round"></path><path d="M81.6,61v0c-2.6,0 -4.6,-2.1 -4.6,-4.6v0c0,-7 -5.4,-13 -12.3,-13.4c-7.5,-0.4 -13.7,6 -13.7,13.4v0c0,2.6 -2.1,4.6 -4.6,4.6v0c-7,0 -13,5.4 -13.4,12.3c-0.4,7.5 5.6,13.7 13,13.7h36c7.4,0 13.4,-6.2 13,-13.7c-0.4,-6.9 -6.4,-12.3 -13.4,-12.3z" fill="#251706" stroke="none" stroke-width="1" stroke-linecap="butt" stroke-linejoin="miter"></path></g></g></svg>